<?xml version="1.0" standalone="no"?>
<!DOCTYPE svg PUBLIC "-//W3C//DTD SVG 20010904//EN"
 "http://www.w3.org/TR/2001/REC-SVG-20010904/DTD/svg10.dtd">
<svg version="1.0" xmlns="http://www.w3.org/2000/svg"
 width="300.000000pt" height="300.000000pt" viewBox="0 0 300.000000 300.000000"
 preserveAspectRatio="xMidYMid meet">
<metadata>
Created by potrace 1.11, written by Peter Selinger 2001-2013
</metadata>
<g transform="translate(0.000000,300.000000) scale(0.100000,-0.100000)"
fill="#000000" stroke="none">
<path d="M1325 2993 c-127 -15 -329 -73 -455 -130 -189 -86 -396 -244 -523
-401 -134 -164 -217 -322 -296 -560 l-51 -152 0 -243 0 -242 35 -115 c100
-325 208 -514 404 -711 210 -210 449 -339 756 -410 119 -27 399 -34 530 -14
317 50 605 196 831 420 211 210 340 443 410 743 32 132 43 383 25 514 -34 232
-113 444 -239 633 -80 120 -100 145 -214 257 -216 211 -502 353 -813 402 -81
13 -322 18 -400 9z m3 -825 c34 -96 105 -347 121 -428 5 -30 15 -109 21 -176
6 -67 22 -175 36 -240 14 -65 28 -146 31 -180 l5 -61 -119 -31 c-140 -37 -143
-38 -143 -14 0 60 -25 255 -46 361 -24 118 -59 259 -67 268 -8 7 -47 -102 -71
-198 -14 -53 -32 -145 -41 -205 -26 -166 -18 -154 -120 -181 -48 -13 -89 -22
-89 -21 -1 2 -7 26 -14 53 -26 103 -159 342 -242 435 l-31 35 5 -40 c3 -22 14
-103 26 -179 11 -77 20 -162 18 -189 l-3 -50 -105 -28 c-58 -15 -110 -28 -116
-28 -8 -1 -14 30 -19 82 -17 207 -58 422 -125 652 -21 72 -42 138 -45 147 -6
15 12 27 99 69 l106 52 33 -26 c96 -73 288 -294 404 -464 31 -46 57 -82 59
-80 1 1 25 90 53 197 29 107 71 259 94 337 l42 141 100 36 c55 19 103 35 107
35 3 1 20 -36 36 -81z m319 -153 c59 -9 118 -18 130 -20 21 -5 21 -8 16 -143
-7 -159 2 -272 21 -272 33 0 152 94 264 207 l124 126 156 4 157 5 -120 -113
c-66 -63 -153 -146 -194 -185 l-74 -71 49 -36 c82 -59 231 -149 389 -235 83
-45 156 -85 164 -90 10 -6 -27 -22 -119 -52 -73 -24 -138 -43 -145 -43 -14 0
-282 143 -478 255 -77 44 -141 78 -143 75 -5 -4 34 -157 65 -257 11 -35 18
-66 16 -69 -5 -4 -236 -40 -267 -41 -43 -1 -122 381 -135 655 -5 124 2 315 13
315 2 0 52 -7 111 -15z"/>
</g>
</svg>
