<?xml version="1.0" standalone="no"?>
<!DOCTYPE svg PUBLIC "-//W3C//DTD SVG 20010904//EN"
 "http://www.w3.org/TR/2001/REC-SVG-20010904/DTD/svg10.dtd">
<svg version="1.0" xmlns="http://www.w3.org/2000/svg"
 width="300.000000pt" height="300.000000pt" viewBox="0 0 300.000000 300.000000"
 preserveAspectRatio="xMidYMid meet">
<metadata>
Created by potrace 1.11, written by Peter Selinger 2001-2013
</metadata>
<g transform="translate(0.000000,300.000000) scale(0.100000,-0.100000)"
fill="#000000" stroke="none">
<path d="M0 1500 l0 -1500 1500 0 1500 0 0 1500 0 1500 -1500 0 -1500 0 0
-1500z m478 417 c72 -63 203 -208 196 -218 -2 -4 0 -10 5 -14 15 -9 0 -37 -16
-31 -8 4 -11 1 -8 -5 4 -6 13 -8 20 -5 8 3 13 -4 13 -21 0 -18 -3 -21 -9 -12
-15 22 -41 -20 -37 -58 3 -20 -1 -34 -9 -37 -7 -3 -13 -15 -13 -26 0 -12 4
-19 8 -16 4 2 9 -5 9 -16 2 -20 1 -20 -12 -2 -8 11 -15 15 -15 11 0 -4 -9 -3
-20 3 -15 8 -20 8 -20 -2 0 -9 -3 -9 -10 2 -7 12 -10 8 -10 -15 0 -20 3 -26 9
-17 6 11 9 9 13 -6 3 -11 1 -26 -6 -33 -8 -9 -8 -10 2 -5 16 10 15 -2 -2 -20
-20 -19 -25 -18 -19 6 4 15 0 20 -17 20 -18 0 -20 -4 -14 -22 3 -13 11 -24 15
-26 15 -6 10 -32 -5 -32 -8 0 -16 -11 -18 -25 -2 -14 -7 -25 -12 -25 -9 1 -36
-45 -36 -62 0 -5 -9 -30 -21 -55 -11 -25 -18 -51 -15 -58 2 -7 -2 -16 -10 -19
-10 -4 -14 2 -15 22 0 15 -2 35 -4 45 -2 9 1 17 6 17 4 0 6 7 3 15 -4 8 -11
12 -16 9 -6 -4 -8 -32 -5 -71 8 -100 -3 -67 -19 58 -22 177 -93 480 -149 638
-8 24 -15 47 -15 52 0 9 187 108 206 108 6 1 38 -23 72 -52z m1190 8 c53 -8
106 -17 118 -20 21 -5 21 -8 17 -172 -3 -93 -1 -186 4 -207 7 -34 13 -40 38
-42 17 -2 24 -1 17 3 -9 3 -2 13 22 29 19 13 39 24 44 24 6 0 12 6 15 14 3 7
18 23 34 34 23 16 30 17 40 7 10 -11 7 -17 -15 -31 l-27 -17 19 21 c21 25 11
29 -18 7 -11 -8 -16 -20 -12 -30 3 -9 2 -13 -4 -10 -6 3 -15 3 -22 -1 -8 -5
-6 -10 8 -15 17 -6 17 -8 -8 -19 -15 -7 -24 -18 -21 -25 2 -7 -3 -27 -11 -43
-12 -22 -13 -31 -4 -34 7 -3 5 -7 -6 -11 -10 -4 -15 -3 -11 3 7 12 -15 13 -30
2 -14 -10 -18 -35 -4 -26 6 3 15 1 19 -6 7 -11 12 -10 25 3 24 25 29 21 8 -7
-11 -15 -22 -21 -28 -16 -27 23 -81 -18 -56 -43 7 -7 13 -3 20 14 5 13 10 20
11 14 1 -5 3 -18 5 -28 2 -9 -1 -15 -6 -11 -5 3 -9 -4 -9 -15 0 -12 -5 -20
-12 -19 -6 2 -12 -8 -12 -22 -1 -18 -6 -24 -18 -22 -18 3 -19 -1 -22 -60 -1
-35 -16 -49 -16 -15 0 15 -4 27 -10 27 -5 0 -10 -24 -10 -52 0 -75 -9 -102
-26 -87 -8 7 -16 10 -17 8 -1 -2 -10 -14 -21 -26 -18 -21 -17 -22 5 -16 15 4
20 3 15 -5 -17 -29 -42 -11 -59 40 -9 28 -14 55 -11 60 3 4 1 8 -4 8 -5 0 -12
10 -15 23 -56 249 -77 416 -77 618 0 163 6 209 26 209 8 0 58 -7 112 -15z
m412 -260 c-7 -8 -17 -15 -22 -15 -11 0 14 29 26 30 5 0 3 -7 -4 -15z m-30
-29 c0 -2 -8 -10 -17 -17 -16 -13 -17 -12 -4 4 13 16 21 21 21 13z m-1312 -36
c-7 -10 -14 -17 -17 -15 -4 4 18 35 25 35 2 0 -1 -9 -8 -20z m-347 -603 c-10
-9 -11 -8 -5 6 3 10 9 15 12 12 3 -3 0 -11 -7 -18z"/>
<path d="M644 1719 c1 -8 7 -23 14 -34 11 -19 12 -19 9 3 -2 12 -8 27 -14 33
-9 9 -11 8 -9 -2z"/>
<path d="M1885 1500 c-3 -5 -1 -10 4 -10 6 0 11 5 11 10 0 6 -2 10 -4 10 -3 0
-8 -4 -11 -10z"/>
</g>
</svg>
