<?xml version="1.0" standalone="no"?>
<!DOCTYPE svg PUBLIC "-//W3C//DTD SVG 20010904//EN"
 "http://www.w3.org/TR/2001/REC-SVG-20010904/DTD/svg10.dtd">
<svg version="1.0" xmlns="http://www.w3.org/2000/svg"
 width="300.000000pt" height="300.000000pt" viewBox="0 0 300.000000 300.000000"
 preserveAspectRatio="xMidYMid meet">
<metadata>
Created by potrace 1.11, written by Peter Selinger 2001-2013
</metadata>
<g transform="translate(0.000000,300.000000) scale(0.100000,-0.100000)"
fill="#000000" stroke="none">
<path d="M1329 2765 c-2 -1 -29 -6 -60 -9 -56 -7 -79 -10 -129 -21 -14 -3 -36
-7 -49 -10 -13 -2 -49 -12 -80 -21 -31 -9 -57 -16 -58 -15 -5 1 -130 -48 -188
-74 -357 -159 -641 -470 -741 -809 -22 -74 -24 -99 -23 -296 0 -146 4 -233 13
-270 35 -144 116 -305 221 -440 22 -28 180 -186 211 -210 49 -39 172 -120 181
-120 6 0 13 -4 15 -8 3 -9 131 -72 212 -104 68 -27 233 -75 287 -83 24 -4 46
-8 49 -10 16 -10 170 -20 300 -20 152 0 247 8 321 24 24 5 58 12 74 15 91 16
247 72 373 134 387 189 660 529 726 904 18 106 14 319 -8 411 -20 83 -60 196
-93 262 -23 46 -109 183 -123 195 -3 3 -25 29 -50 59 -25 30 -82 87 -129 128
-230 201 -482 313 -851 379 -37 6 -396 15 -401 9z"/>
</g>
</svg>
